<svg xmlns="http://www.w3.org/2000/svg" viewBox="0 0 100 100">
  <defs>
    <linearGradient id="bg" x1="0%" y1="0%" x2="100%" y2="100%">
      <stop offset="0%" stop-color="#7C6EF0"/>
      <stop offset="100%" stop-color="#5B4AD4"/>
    </linearGradient>
    <clipPath id="bc">
      <circle cx="50" cy="50" r="34"/>
    </clipPath>
  </defs>
  <!-- Rounded square background -->
  <rect width="100" height="100" rx="26" fill="url(#bg)"/>
  <!-- White ball -->
  <circle cx="50" cy="50" r="34" fill="white"/>
  <!-- Pentagon patches (clipped to ball) — Telstar pattern, tilt=15° -->
  <g clip-path="url(#bc)" fill="#5B4AD4">
    <polygon points="52.99,38.84 61.54,49.40 54.14,60.79 41.02,57.28 40.30,43.70"/>
    <polygon points="71.84,26.40 77.63,33.54 72.62,41.25 63.75,38.87 63.26,29.69"/>
    <polygon points="79.20,63.48 74.19,71.19 65.32,68.81 64.83,59.64 73.41,56.33"/>
    <polygon points="46.20,81.93 37.32,79.55 36.84,70.37 45.42,67.07 51.21,74.22"/>
    <polygon points="18.39,56.25 17.90,47.07 26.48,43.77 32.26,50.92 27.26,58.63"/>
    <polygon points="34.31,21.93 42.88,18.63 48.66,25.78 43.66,33.49 34.78,31.11"/>
  </g>
  <!-- Seam lines -->
  <g clip-path="url(#bc)" fill="none" stroke="#5B4AD4" stroke-width="2.3" stroke-linecap="round">
    <path d="M52.99,38.84 Q63.59,33.79 69.82,33.95"/>
    <path d="M52.99,38.84 Q46.34,29.17 40.86,26.19"/>
    <path d="M61.54,49.40 Q69.63,57.92 71.39,63.89"/>
    <path d="M61.54,49.40 Q68.68,40.09 69.82,33.95"/>
    <path d="M54.14,60.79 Q48.53,71.10 43.40,74.63"/>
    <path d="M54.14,60.79 Q65.22,64.70 71.39,63.89"/>
    <path d="M41.02,57.28 Q29.44,55.13 24.46,51.33"/>
    <path d="M41.02,57.28 Q40.72,69.02 43.40,74.63"/>
    <path d="M40.30,43.70 Q38.78,32.07 40.86,26.19"/>
    <path d="M40.30,43.70 Q29.01,47.05 24.46,51.33"/>
  </g>
  <!-- Ball outline -->
  <circle cx="50" cy="50" r="34" fill="none" stroke="#5B4AD4" stroke-width="1.2" opacity="0.2"/>
</svg>
